0
SECTION
2
HEADER
9
$INSUNITS
70
4
9
$ACADVER
1
AC1014
9
$HANDSEED
5
FFFF
0
ENDSEC
0
SECTION
2
TABLES
0
TABLE
2
VPORT
5
8
100
AcDbSymbolTable
0
ENDTAB
0
TABLE
2
LTYPE
5
5
100
AcDbSymbolTable
0
LTYPE
5
14
100
AcDbSymbolTableRecord
100
AcDbLinetypeTableRecord
2
BYBLOCK
70
0
0
LTYPE
5
15
100
AcDbSymbolTableRecord
100
AcDbLinetypeTableRecord
2
BYLAYER
70
0
0
ENDTAB
0
TABLE
2
LAYER
5
2
100
AcDbSymbolTable
70
2
0
LAYER
5
50
100
AcDbSymbolTableRecord
100
AcDbLayerTableRecord
2
0
70
0
6
CONTINUOUS
0
ENDTAB
0
TABLE
2
STYLE
5
3
100
AcDbSymbolTable
70
1
0
STYLE
5
11
100
AcDbSymbolTableRecord
100
AcDbTextStyleTableRecord
2
STANDARD
70
0
0
ENDTAB
0
TABLE
2
VIEW
5
6
100
AcDbSymbolTable
70
0
0
ENDTAB
0
TABLE
2
UCS
5
7
100
AcDbSymbolTable
70
0
0
ENDTAB
0
TABLE
2
APPID
5
9
100
AcDbSymbolTable
70
2
0
APPID
5
12
100
AcDbSymbolTableRecord
100
AcDbRegAppTableRecord
2
ACAD
70
0
0
ENDTAB
0
TABLE
2
DIMSTYLE
5
A
100
AcDbSymbolTable
70
1
0
ENDTAB
0
TABLE
2
BLOCK_RECORD
5
1
100
AcDbSymbolTable
70
1
0
BLOCK_RECORD
5
1F
100
AcDbSymbolTableRecord
100
AcDbBlockTableRecord
2
*MODEL_SPACE
0
BLOCK_RECORD
5
1B
100
AcDbSymbolTableRecord
100
AcDbBlockTableRecord
2
*PAPER_SPACE
0
ENDTAB
0
ENDSEC
0
SECTION
2
BLOCKS
0
BLOCK
5
20
100
AcDbEntity
100
AcDbBlockBegin
2
*MODEL_SPACE
0
ENDBLK
5
21
100
AcDbEntity
100
AcDbBlockEnd
0
BLOCK
5
1C
100
AcDbEntity
100
AcDbBlockBegin
2
*PAPER_SPACE
0
ENDBLK
5
1D
100
AcDbEntity
100
AcDbBlockEnd
0
ENDSEC
0
SECTION
2
ENTITIES
0
LWPOLYLINE
5
100
100
AcDbEntity
8
0
100
AcDbPolyline
90
44
70
1
43
0.0
10
-14.25
20
180.00000000000011
10
-14.25
20
200.00000000000017
10
14.150000000000002
20
200.00000000000014
10
14.150000000000002
20
180.00000000000003
10
17.250000000000004
20
180.00000000000006
10
17.250000000000004
20
160.00000000000003
10
14.150000000000002
20
160.00000000000003
10
14.150000000000002
20
140
10
17.250000000000004
20
140
10
17.250000000000004
20
119.99999999999997
10
14.150000000000002
20
119.99999999999997
10
14.150000000000007
20
99.999999999999929
10
17.250000000000004
20
99.999999999999886
10
17.250000000000004
20
79.999999999999858
10
14.150000000000007
20
79.999999999999915
10
14.150000000000007
20
59.999999999999858
10
17.250000000000004
20
59.999999999999844
10
17.250000000000004
20
39.999999999999787
10
14.150000000000007
20
39.999999999999794
10
14.150000000000007
20
29.999999999999787
10
17.250000000000004
20
29.999999999999773
10
17.250000000000004
20
9.9999999999997158
10
14.150000000000007
20
9.9999999999997264
10
14.150000000000007
20
-3.5527136788005009e-14
10
-14.25
20
-4.6629367034256575e-14
10
-14.25
20
9.9999999999997158
10
-17.350000000000001
20
9.99999999999973
10
-17.350000000000001
20
29.999999999999787
10
-14.25
20
29.99999999999978
10
-14.25
20
39.999999999999787
10
-17.350000000000001
20
39.999999999999801
10
-17.350000000000001
20
59.999999999999858
10
-14.25
20
59.999999999999822
10
-14.25
20
79.999999999999844
10
-17.350000000000001
20
79.999999999999872
10
-17.350000000000001
20
99.999999999999915
10
-14.25
20
99.999999999999886
10
-14.25
20
119.99999999999994
10
-17.350000000000001
20
119.99999999999994
10
-17.350000000000001
20
139.99999999999997
10
-14.25
20
139.99999999999997
10
-14.25
20
160.00000000000003
10
-17.350000000000001
20
160.00000000000003
10
-17.350000000000001
20
180.00000000000006
0
ENDSEC
0
SECTION
2
OBJECTS
0
DICTIONARY
5
C
100
AcDbDictionary
3
ACAD_GROUP
350
D
3
ACAD_MLINESTYLE
350
17
0
DICTIONARY
5
D
100
AcDbDictionary
0
DICTIONARY
5
1A
330
C
100
AcDbDictionary
0
DICTIONARY
5
17
100
AcDbDictionary
0
ENDSEC
0
EOF
