0
SECTION
2
HEADER
9
$INSUNITS
70
4
9
$ACADVER
1
AC1014
9
$HANDSEED
5
FFFF
0
ENDSEC
0
SECTION
2
TABLES
0
TABLE
2
VPORT
5
8
100
AcDbSymbolTable
0
ENDTAB
0
TABLE
2
LTYPE
5
5
100
AcDbSymbolTable
0
LTYPE
5
14
100
AcDbSymbolTableRecord
100
AcDbLinetypeTableRecord
2
BYBLOCK
70
0
0
LTYPE
5
15
100
AcDbSymbolTableRecord
100
AcDbLinetypeTableRecord
2
BYLAYER
70
0
0
ENDTAB
0
TABLE
2
LAYER
5
2
100
AcDbSymbolTable
70
2
0
LAYER
5
50
100
AcDbSymbolTableRecord
100
AcDbLayerTableRecord
2
0
70
0
6
CONTINUOUS
0
ENDTAB
0
TABLE
2
STYLE
5
3
100
AcDbSymbolTable
70
1
0
STYLE
5
11
100
AcDbSymbolTableRecord
100
AcDbTextStyleTableRecord
2
STANDARD
70
0
0
ENDTAB
0
TABLE
2
VIEW
5
6
100
AcDbSymbolTable
70
0
0
ENDTAB
0
TABLE
2
UCS
5
7
100
AcDbSymbolTable
70
0
0
ENDTAB
0
TABLE
2
APPID
5
9
100
AcDbSymbolTable
70
2
0
APPID
5
12
100
AcDbSymbolTableRecord
100
AcDbRegAppTableRecord
2
ACAD
70
0
0
ENDTAB
0
TABLE
2
DIMSTYLE
5
A
100
AcDbSymbolTable
70
1
0
ENDTAB
0
TABLE
2
BLOCK_RECORD
5
1
100
AcDbSymbolTable
70
1
0
BLOCK_RECORD
5
1F
100
AcDbSymbolTableRecord
100
AcDbBlockTableRecord
2
*MODEL_SPACE
0
BLOCK_RECORD
5
1B
100
AcDbSymbolTableRecord
100
AcDbBlockTableRecord
2
*PAPER_SPACE
0
ENDTAB
0
ENDSEC
0
SECTION
2
BLOCKS
0
BLOCK
5
20
100
AcDbEntity
100
AcDbBlockBegin
2
*MODEL_SPACE
0
ENDBLK
5
21
100
AcDbEntity
100
AcDbBlockEnd
0
BLOCK
5
1C
100
AcDbEntity
100
AcDbBlockBegin
2
*PAPER_SPACE
0
ENDBLK
5
1D
100
AcDbEntity
100
AcDbBlockEnd
0
ENDSEC
0
SECTION
2
ENTITIES
0
CIRCLE
5
100
100
AcDbEntity
8
0
100
AcDbCircle
10
8
20
235.24999618530273
30
0
40
1.0499999999999998
0
LWPOLYLINE
5
101
100
AcDbEntity
8
0
100
AcDbPolyline
90
4
70
1
43
0.0
10
-5
20
480.24999618530268
10
5
20
480.24999618530268
10
5
20
505.24999618530268
10
-5
20
505.24999618530268
0
CIRCLE
5
102
100
AcDbEntity
8
0
100
AcDbCircle
10
-9.7971743931788257e-16
20
227.24999618530273
30
0
40
1.05
0
CIRCLE
5
103
100
AcDbEntity
8
0
100
AcDbCircle
10
-8.0000000000000036
20
235.24999618530273
30
0
40
1.0499999999999998
0
CIRCLE
5
104
100
AcDbEntity
8
0
100
AcDbCircle
10
0
20
243.24999618530273
30
0
40
1.05
0
LWPOLYLINE
5
105
100
AcDbEntity
8
0
100
AcDbPolyline
90
64
70
1
43
0.0
10
14.249999999999989
20
435.24999618530268
10
17.350000000000012
20
435.24999618530268
10
17.350000000000012
20
420.24999618530268
10
14.249999999999963
20
420.24999618530268
10
14.24999999999998
20
405.24999618530268
10
17.350000000000012
20
405.24999618530268
10
17.350000000000012
20
390.24999618530268
10
14.249999999999936
20
390.24999618530268
10
14.249999999999972
20
370.24999618530268
10
17.350000000000009
20
370.24999618530268
10
17.350000000000001
20
355.24999618530268
10
14.249999999999879
20
355.24999618530268
10
14.249999999999963
20
340.24999618530268
10
17.350000000000001
20
340.24999618530268
10
17.350000000000009
20
325.24999618530268
10
14.249999999999915
20
325.24999618530273
10
14.249999999999954
20
305.24999618530273
10
17.350000000000001
20
305.24999618530273
10
17.350000000000001
20
290.24999618530273
10
14.249999999999996
20
290.24999618530273
10
14.249999999999989
20
275.24999618530273
10
17.349999999999888
20
275.24999618530273
10
17.350000000000016
20
245.19874042369426
42
-1.7261524228481133
10
-17.349999999999998
20
245.19874042369429
10
-17.349999999999884
20
275.24999618530273
10
-14.249999999999982
20
275.24999618530273
10
-14.249999999999988
20
290.24999618530273
10
-17.349999999999998
20
290.24999618530273
10
-17.349999999999991
20
305.24999618530273
10
-14.249999999999947
20
305.24999618530268
10
-14.249999999999902
20
325.24999618530268
10
-17.349999999999994
20
325.24999618530268
10
-17.349999999999991
20
340.24999618530268
10
-14.249999999999956
20
340.24999618530268
10
-14.249999999999867
20
355.24999618530268
10
-17.349999999999991
20
355.24999618530268
10
-17.349999999999991
20
370.24999618530268
10
-14.249999999999956
20
370.24999618530268
10
-14.249999999999911
20
390.24999618530268
10
-17.349999999999991
20
390.24999618530268
10
-17.349999999999991
20
405.24999618530268
10
-14.249999999999956
20
405.24999618530268
10
-14.249999999999938
20
420.24999618530268
10
-17.349999999999987
20
420.24999618530268
10
-17.349999999999987
20
435.24999618530268
10
-14.249999999999964
20
435.24999618530268
10
-14.249999999999876
20
455.24999618530268
10
-17.349999999999987
20
455.24999618530273
10
-17.349999999999987
20
476.24999618530273
10
-14.250000000000018
20
476.24999618530273
10
-14.249999999999956
20
486.24999618530273
10
-17.34999999999998
20
486.24999618530268
10
-17.349999999999984
20
500.24999618530268
10
-14.249999999999956
20
500.24999618530268
10
-14.250000000000018
20
510.24999618530268
10
14.25000000000005
20
510.24999618530268
10
14.250000000000043
20
500.24999618530268
10
17.350000000000023
20
500.24999618530273
10
17.350000000000012
20
486.24999618530273
10
14.250000000000036
20
486.24999618530273
10
14.250000000000044
20
476.24999618530273
10
17.350000000000016
20
476.24999618530268
10
17.350000000000012
20
455.24999618530268
10
14.249999999999904
20
455.24999618530268
0
ENDSEC
0
SECTION
2
OBJECTS
0
DICTIONARY
5
C
100
AcDbDictionary
3
ACAD_GROUP
350
D
3
ACAD_MLINESTYLE
350
17
0
DICTIONARY
5
D
100
AcDbDictionary
0
DICTIONARY
5
1A
330
C
100
AcDbDictionary
0
DICTIONARY
5
17
100
AcDbDictionary
0
ENDSEC
0
EOF
