0
SECTION
2
HEADER
9
$INSUNITS
70
4
9
$ACADVER
1
AC1014
9
$HANDSEED
5
FFFF
0
ENDSEC
0
SECTION
2
TABLES
0
TABLE
2
VPORT
5
8
100
AcDbSymbolTable
0
ENDTAB
0
TABLE
2
LTYPE
5
5
100
AcDbSymbolTable
0
LTYPE
5
14
100
AcDbSymbolTableRecord
100
AcDbLinetypeTableRecord
2
BYBLOCK
70
0
0
LTYPE
5
15
100
AcDbSymbolTableRecord
100
AcDbLinetypeTableRecord
2
BYLAYER
70
0
0
ENDTAB
0
TABLE
2
LAYER
5
2
100
AcDbSymbolTable
70
2
0
LAYER
5
50
100
AcDbSymbolTableRecord
100
AcDbLayerTableRecord
2
0
70
0
6
CONTINUOUS
0
ENDTAB
0
TABLE
2
STYLE
5
3
100
AcDbSymbolTable
70
1
0
STYLE
5
11
100
AcDbSymbolTableRecord
100
AcDbTextStyleTableRecord
2
STANDARD
70
0
0
ENDTAB
0
TABLE
2
VIEW
5
6
100
AcDbSymbolTable
70
0
0
ENDTAB
0
TABLE
2
UCS
5
7
100
AcDbSymbolTable
70
0
0
ENDTAB
0
TABLE
2
APPID
5
9
100
AcDbSymbolTable
70
2
0
APPID
5
12
100
AcDbSymbolTableRecord
100
AcDbRegAppTableRecord
2
ACAD
70
0
0
ENDTAB
0
TABLE
2
DIMSTYLE
5
A
100
AcDbSymbolTable
70
1
0
ENDTAB
0
TABLE
2
BLOCK_RECORD
5
1
100
AcDbSymbolTable
70
1
0
BLOCK_RECORD
5
1F
100
AcDbSymbolTableRecord
100
AcDbBlockTableRecord
2
*MODEL_SPACE
0
BLOCK_RECORD
5
1B
100
AcDbSymbolTableRecord
100
AcDbBlockTableRecord
2
*PAPER_SPACE
0
ENDTAB
0
ENDSEC
0
SECTION
2
BLOCKS
0
BLOCK
5
20
100
AcDbEntity
100
AcDbBlockBegin
2
*MODEL_SPACE
0
ENDBLK
5
21
100
AcDbEntity
100
AcDbBlockEnd
0
BLOCK
5
1C
100
AcDbEntity
100
AcDbBlockBegin
2
*PAPER_SPACE
0
ENDBLK
5
1D
100
AcDbEntity
100
AcDbBlockEnd
0
ENDSEC
0
SECTION
2
ENTITIES
0
CIRCLE
5
100
100
AcDbEntity
8
0
100
AcDbCircle
10
16.00000000000011
20
207.2500000000002
30
0
40
1.1000000000000045
0
CIRCLE
5
101
100
AcDbEntity
8
0
100
AcDbCircle
10
28.000000000000153
20
207.25000000000017
30
0
40
1.1000000000000001
0
CIRCLE
5
102
100
AcDbEntity
8
0
100
AcDbCircle
10
28.000000000000149
20
231.25000000000023
30
0
40
1.1000000000000023
0
CIRCLE
5
103
100
AcDbEntity
8
0
100
AcDbCircle
10
16.000000000000124
20
231.25000000000023
30
0
40
1.1000000000000005
0
LWPOLYLINE
5
104
100
AcDbEntity
8
0
100
AcDbPolyline
90
48
70
1
43
0.0
10
1.9000000000000306
20
-4.6629367034256575e-14
10
1.9000000000000339
20
9.9999999999999645
10
5.0000000000000373
20
9.9999999999999787
10
5.0000000000000444
20
30
10
1.9000000000000405
20
29.999999999999993
10
1.9000000000000439
20
40
10
5.000000000000048
20
40.000000000000014
10
5.0000000745058717
20
60.000000000000036
10
1.9000000000000505
20
60.000000000000014
10
1.9000000000000572
20
80.000000000000028
10
5.0000000000000613
20
80.000000000000057
10
5.0000001490117061
20
100.00000000000007
10
1.9000000000000639
20
100.00000000000007
10
1.9000000000000705
20
120.00000000000009
10
5.0000000000000746
20
120.00000000000009
10
5.0000000000000808
20
140.00000000000011
10
1.9000000000000772
20
140.00000000000011
10
1.9000000000000838
20
160.00000000000014
10
5.0000000000000879
20
160.00000000000011
10
5.0000000000000941
20
180.00000000000014
10
1.9000000000000905
20
180.00000000000014
10
1.9000000000000949
20
200.00000000000017
10
5.0000000000000986
20
200.00000000000017
10
5.0000000000001199
20
246.5000000000002
10
39.000000000000156
20
246.5000000000002
10
39.000000000000135
20
200.00000000000014
10
42.100000000000136
20
200.00000000000014
10
42.100000000000136
20
180.00000000000014
10
39.000000000000121
20
180.00000000000014
10
39.000000000000107
20
160.00000000000011
10
42.100000000000115
20
160.00000000000011
10
42.100000000000115
20
140.00000000000009
10
39.000000000000114
20
140.00000000000009
10
39.000000000000099
20
120.00000000000007
10
42.100000000000108
20
120.00000000000007
10
42.100000000000108
20
100.00000000000006
10
38.999999850988452
20
100.00000000000003
10
39.000000000000078
20
80.000000000000014
10
42.100000000000087
20
80.000000000000057
10
42.100000000000087
20
60.000000000000036
10
38.999999925494265
20
60.000000000000014
10
39.000000000000071
20
40
10
42.100000000000072
20
40.000000000000007
10
42.10000000000008
20
30
10
39.000000000000071
20
29.999999999999986
10
39.000000000000064
20
9.9999999999999662
10
42.100000000000065
20
9.9999999999999751
10
42.100000000000072
20
-4.89164264649844e-14
0
ENDSEC
0
SECTION
2
OBJECTS
0
DICTIONARY
5
C
100
AcDbDictionary
3
ACAD_GROUP
350
D
3
ACAD_MLINESTYLE
350
17
0
DICTIONARY
5
D
100
AcDbDictionary
0
DICTIONARY
5
1A
330
C
100
AcDbDictionary
0
DICTIONARY
5
17
100
AcDbDictionary
0
ENDSEC
0
EOF
