0
SECTION
2
HEADER
9
$INSUNITS
70
4
9
$ACADVER
1
AC1014
9
$HANDSEED
5
FFFF
0
ENDSEC
0
SECTION
2
TABLES
0
TABLE
2
VPORT
5
8
100
AcDbSymbolTable
0
ENDTAB
0
TABLE
2
LTYPE
5
5
100
AcDbSymbolTable
0
LTYPE
5
14
100
AcDbSymbolTableRecord
100
AcDbLinetypeTableRecord
2
BYBLOCK
70
0
0
LTYPE
5
15
100
AcDbSymbolTableRecord
100
AcDbLinetypeTableRecord
2
BYLAYER
70
0
0
ENDTAB
0
TABLE
2
LAYER
5
2
100
AcDbSymbolTable
70
2
0
LAYER
5
50
100
AcDbSymbolTableRecord
100
AcDbLayerTableRecord
2
0
70
0
6
CONTINUOUS
0
ENDTAB
0
TABLE
2
STYLE
5
3
100
AcDbSymbolTable
70
1
0
STYLE
5
11
100
AcDbSymbolTableRecord
100
AcDbTextStyleTableRecord
2
STANDARD
70
0
0
ENDTAB
0
TABLE
2
VIEW
5
6
100
AcDbSymbolTable
70
0
0
ENDTAB
0
TABLE
2
UCS
5
7
100
AcDbSymbolTable
70
0
0
ENDTAB
0
TABLE
2
APPID
5
9
100
AcDbSymbolTable
70
2
0
APPID
5
12
100
AcDbSymbolTableRecord
100
AcDbRegAppTableRecord
2
ACAD
70
0
0
ENDTAB
0
TABLE
2
DIMSTYLE
5
A
100
AcDbSymbolTable
70
1
0
ENDTAB
0
TABLE
2
BLOCK_RECORD
5
1
100
AcDbSymbolTable
70
1
0
BLOCK_RECORD
5
1F
100
AcDbSymbolTableRecord
100
AcDbBlockTableRecord
2
*MODEL_SPACE
0
BLOCK_RECORD
5
1B
100
AcDbSymbolTableRecord
100
AcDbBlockTableRecord
2
*PAPER_SPACE
0
ENDTAB
0
ENDSEC
0
SECTION
2
BLOCKS
0
BLOCK
5
20
100
AcDbEntity
100
AcDbBlockBegin
2
*MODEL_SPACE
0
ENDBLK
5
21
100
AcDbEntity
100
AcDbBlockEnd
0
BLOCK
5
1C
100
AcDbEntity
100
AcDbBlockBegin
2
*PAPER_SPACE
0
ENDBLK
5
1D
100
AcDbEntity
100
AcDbBlockEnd
0
ENDSEC
0
SECTION
2
ENTITIES
0
LWPOLYLINE
5
100
100
AcDbEntity
8
0
100
AcDbPolyline
90
4
70
1
43
0.0
10
3.1000000000001937
20
486.25000000000034
10
3.1000000000001977
20
500.25000000000034
10
1.9852175459078583e-13
20
500.25000000000034
10
1.9373391779708982e-13
20
486.25000000000034
0
LWPOLYLINE
5
101
100
AcDbEntity
8
0
100
AcDbPolyline
90
4
70
1
43
0.0
10
41.00000000000022
20
500.25000000000034
10
41.000000000000213
20
486.25000000000034
10
44.100000000000207
20
486.25000000000034
10
44.100000000000215
20
500.25000000000034
0
CIRCLE
5
102
100
AcDbEntity
8
0
100
AcDbCircle
10
238.85000000000019
20
487.25000000000023
30
0
40
1.0999999999999943
0
CIRCLE
5
103
100
AcDbEntity
8
0
100
AcDbCircle
10
238.85000000000022
20
499.25000000000023
30
0
40
1.0999999999999943
0
CIRCLE
5
104
100
AcDbEntity
8
0
100
AcDbCircle
10
262.85000000000019
20
487.25000000000023
30
0
40
1.0999999999999943
0
CIRCLE
5
105
100
AcDbEntity
8
0
100
AcDbCircle
10
262.85000000000025
20
499.25000000000023
30
0
40
1.0999999999999943
0
LINE
5
106
100
AcDbEntity
8
0
100
AcDbLine
10
84.000000000000213
20
476.25000000000028
30
0
11
94.000000000000213
21
476.25000000000028
31
0
0
LINE
5
107
100
AcDbEntity
8
0
100
AcDbLine
10
94.000000000000213
20
476.25000000000028
30
0
11
94.000000000000213
21
479.35000000000031
31
-2.3199597683600168e-45
0
LINE
5
108
100
AcDbEntity
8
0
100
AcDbLine
10
94.000000000000213
20
479.35000000000031
30
-2.3199597683600168e-45
11
109.00000000000021
21
479.35000000000031
31
0
0
LINE
5
109
100
AcDbEntity
8
0
100
AcDbLine
10
109.00000000000021
20
479.35000000000031
30
0
11
109.00000000000021
21
476.25000000000028
31
2.3199597683600168e-45
0
LINE
5
110
100
AcDbEntity
8
0
100
AcDbLine
10
109.00000000000021
20
476.25000000000028
30
2.3199597683600168e-45
11
119.00000000000021
21
476.25000000000028
31
0
0
LINE
5
111
100
AcDbEntity
8
0
100
AcDbLine
10
119.00000000000021
20
476.25000000000028
30
0
11
119.00000000000021
21
479.35000000000031
31
-2.3199597683600168e-45
0
LINE
5
112
100
AcDbEntity
8
0
100
AcDbLine
10
119.00000000000021
20
479.35000000000031
30
-2.3199597683600168e-45
11
134.00000000000023
21
479.35000000000031
31
0
0
LINE
5
113
100
AcDbEntity
8
0
100
AcDbLine
10
134.00000000000023
20
479.35000000000031
30
0
11
134.00000000000023
21
476.25000000000028
31
2.3199597683600168e-45
0
LINE
5
114
100
AcDbEntity
8
0
100
AcDbLine
10
134.00000000000023
20
476.25000000000028
30
2.3199597683600168e-45
11
144.00000000000023
21
476.25000000000028
31
0
0
LINE
5
115
100
AcDbEntity
8
0
100
AcDbLine
10
144.00000000000023
20
476.25000000000028
30
0
11
144.00000000000023
21
479.35000000000031
31
-2.3199597683600168e-45
0
LINE
5
116
100
AcDbEntity
8
0
100
AcDbLine
10
144.00000000000023
20
479.35000000000031
30
-2.3199597683600168e-45
11
159.00000000000023
21
479.35000000000031
31
0
0
LINE
5
117
100
AcDbEntity
8
0
100
AcDbLine
10
159.00000000000023
20
479.35000000000031
30
0
11
159.00000000000023
21
476.25000000000028
31
2.3199597683600168e-45
0
LINE
5
118
100
AcDbEntity
8
0
100
AcDbLine
10
159.00000000000023
20
476.25000000000028
30
2.3199597683600168e-45
11
169.0000000000002
21
476.25000000000028
31
0
0
LINE
5
119
100
AcDbEntity
8
0
100
AcDbLine
10
169.0000000000002
20
476.25000000000028
30
0
11
169.0000000000002
21
479.35000000000031
31
-2.3199597683600168e-45
0
LINE
5
120
100
AcDbEntity
8
0
100
AcDbLine
10
169.0000000000002
20
479.35000000000031
30
-2.3199597683600168e-45
11
179.0000000000002
21
479.35000000000031
31
0
0
LINE
5
121
100
AcDbEntity
8
0
100
AcDbLine
10
179.0000000000002
20
479.35000000000031
30
0
11
179.0000000000002
21
476.25000000000028
31
2.3199597683600168e-45
0
LINE
5
122
100
AcDbEntity
8
0
100
AcDbLine
10
179.0000000000002
20
476.25000000000028
30
2.3199597683600168e-45
11
194.0000000000002
21
476.25000000000028
31
0
0
LINE
5
123
100
AcDbEntity
8
0
100
AcDbLine
10
194.0000000000002
20
476.25000000000028
30
0
11
194.0000000000002
21
479.35000000000031
31
-2.3199597683600168e-45
0
LINE
5
124
100
AcDbEntity
8
0
100
AcDbLine
10
194.0000000000002
20
479.35000000000031
30
-2.3199597683600168e-45
11
204.0000000000002
21
479.35000000000031
31
0
0
LINE
5
125
100
AcDbEntity
8
0
100
AcDbLine
10
204.0000000000002
20
479.35000000000031
30
0
11
204.0000000000002
21
476.25000000000028
31
2.3199597683600168e-45
0
LINE
5
126
100
AcDbEntity
8
0
100
AcDbLine
10
204.0000000000002
20
476.25000000000028
30
2.3199597683600168e-45
11
219.0000000000002
21
476.25000000000028
31
0
0
LINE
5
127
100
AcDbEntity
8
0
100
AcDbLine
10
219.0000000000002
20
476.25000000000028
30
0
11
219.0000000000002
21
479.35000000000031
31
-2.3199597683600168e-45
0
LINE
5
128
100
AcDbEntity
8
0
100
AcDbLine
10
219.0000000000002
20
479.35000000000031
30
-2.3199597683600168e-45
11
229.0000000000002
21
479.35000000000031
31
0
0
LINE
5
129
100
AcDbEntity
8
0
100
AcDbLine
10
229.0000000000002
20
479.35000000000031
30
0
11
229.0000000000002
21
476.25000000000028
31
2.3199597683600168e-45
0
LINE
5
130
100
AcDbEntity
8
0
100
AcDbLine
10
229.0000000000002
20
476.25000000000028
30
2.3199597683600168e-45
11
278.10000000000019
21
476.25000000000028
31
0
0
LINE
5
131
100
AcDbEntity
8
0
100
AcDbLine
10
278.10000000000019
20
476.25000000000028
30
0
11
278.10000000000019
21
510.25000000000028
31
-2.5444720040077698e-44
0
LINE
5
132
100
AcDbEntity
8
0
100
AcDbLine
10
278.10000000000019
20
510.25000000000028
30
-2.5444720040077698e-44
11
229.00000000000023
21
510.25000000000023
31
0
0
LINE
5
133
100
AcDbEntity
8
0
100
AcDbLine
10
229.00000000000023
20
510.25000000000023
30
0
11
229.00000000000023
21
507.15000000000032
31
2.3199597683600168e-45
0
LINE
5
134
100
AcDbEntity
8
0
100
AcDbLine
10
229.00000000000023
20
507.15000000000032
30
2.3199597683600168e-45
11
219.00000000000023
21
507.15000000000032
31
0
0
LINE
5
135
100
AcDbEntity
8
0
100
AcDbLine
10
219.00000000000023
20
507.15000000000032
30
0
11
219.00000000000023
21
510.25000000000034
31
-2.3199597683600168e-45
0
LINE
5
136
100
AcDbEntity
8
0
100
AcDbLine
10
219.00000000000023
20
510.25000000000034
30
-2.3199597683600168e-45
11
204.00000000000023
21
510.25000000000028
31
0
0
LINE
5
137
100
AcDbEntity
8
0
100
AcDbLine
10
204.00000000000023
20
510.25000000000028
30
0
11
204.00000000000023
21
507.15000000000032
31
2.3199597683600168e-45
0
LINE
5
138
100
AcDbEntity
8
0
100
AcDbLine
10
204.00000000000023
20
507.15000000000032
30
2.3199597683600168e-45
11
194.00000000000023
21
507.15000000000032
31
0
0
LINE
5
139
100
AcDbEntity
8
0
100
AcDbLine
10
194.00000000000023
20
507.15000000000032
30
0
11
194.00000000000023
21
510.25000000000034
31
-2.3199597683600168e-45
0
LINE
5
140
100
AcDbEntity
8
0
100
AcDbLine
10
194.00000000000023
20
510.25000000000034
30
-2.3199597683600168e-45
11
179.00000000000023
21
510.25000000000028
31
0
0
LINE
5
141
100
AcDbEntity
8
0
100
AcDbLine
10
179.00000000000023
20
510.25000000000028
30
0
11
179.00000000000023
21
507.15000000000032
31
2.3199597683600168e-45
0
LINE
5
142
100
AcDbEntity
8
0
100
AcDbLine
10
179.00000000000023
20
507.15000000000032
30
2.3199597683600168e-45
11
169.00000000000023
21
507.15000000000032
31
0
0
LINE
5
143
100
AcDbEntity
8
0
100
AcDbLine
10
169.00000000000023
20
507.15000000000032
30
0
11
169.00000000000023
21
510.25000000000034
31
-2.3199597683600168e-45
0
LINE
5
144
100
AcDbEntity
8
0
100
AcDbLine
10
169.00000000000023
20
510.25000000000034
30
-2.3199597683600168e-45
11
159.00000000000023
21
510.25000000000028
31
0
0
LINE
5
145
100
AcDbEntity
8
0
100
AcDbLine
10
159.00000000000023
20
510.25000000000028
30
0
11
159.00000000000023
21
507.15000000000032
31
2.3199597683600168e-45
0
LINE
5
146
100
AcDbEntity
8
0
100
AcDbLine
10
159.00000000000023
20
507.15000000000032
30
2.3199597683600168e-45
11
144.00000000000023
21
507.15000000000032
31
0
0
LINE
5
147
100
AcDbEntity
8
0
100
AcDbLine
10
144.00000000000023
20
507.15000000000032
30
0
11
144.00000000000023
21
510.25000000000034
31
-2.3199597683600168e-45
0
LINE
5
148
100
AcDbEntity
8
0
100
AcDbLine
10
144.00000000000023
20
510.25000000000034
30
-2.3199597683600168e-45
11
134.00000000000023
21
510.25000000000034
31
0
0
LINE
5
149
100
AcDbEntity
8
0
100
AcDbLine
10
134.00000000000023
20
510.25000000000034
30
0
11
134.00000000000023
21
507.15000000000032
31
2.3199597683600168e-45
0
LINE
5
150
100
AcDbEntity
8
0
100
AcDbLine
10
134.00000000000023
20
507.15000000000032
30
2.3199597683600168e-45
11
119.00000000000021
21
507.15000000000032
31
0
0
LINE
5
151
100
AcDbEntity
8
0
100
AcDbLine
10
119.00000000000021
20
507.15000000000032
30
0
11
119.00000000000021
21
510.25000000000034
31
-2.3199597683600168e-45
0
LINE
5
152
100
AcDbEntity
8
0
100
AcDbLine
10
119.00000000000021
20
510.25000000000034
30
-2.3199597683600168e-45
11
109.00000000000021
21
510.25000000000034
31
0
0
LINE
5
153
100
AcDbEntity
8
0
100
AcDbLine
10
109.00000000000021
20
510.25000000000034
30
0
11
109.00000000000021
21
507.15000000000032
31
2.3199597683600168e-45
0
LINE
5
154
100
AcDbEntity
8
0
100
AcDbLine
10
109.00000000000021
20
507.15000000000032
30
2.3199597683600168e-45
11
94.000000000000213
21
507.15000000000032
31
0
0
LINE
5
155
100
AcDbEntity
8
0
100
AcDbLine
10
94.000000000000213
20
507.15000000000032
30
0
11
94.000000000000213
21
510.25000000000034
31
-2.3199597683600168e-45
0
LINE
5
156
100
AcDbEntity
8
0
100
AcDbLine
10
94.000000000000213
20
510.25000000000034
30
-2.3199597683600168e-45
11
84.000000000000213
21
510.25000000000034
31
0
0
LINE
5
157
100
AcDbEntity
8
0
100
AcDbLine
10
84.000000000000213
20
510.25000000000034
30
0
11
84.000000000000213
21
507.15000000000032
31
2.3199597683600168e-45
0
LINE
5
158
100
AcDbEntity
8
0
100
AcDbLine
10
84.000000000000213
20
507.15000000000032
30
2.3199597683600168e-45
11
69.000000000000213
21
507.15000000000032
31
0
0
LINE
5
159
100
AcDbEntity
8
0
100
AcDbLine
10
69.000000000000213
20
507.15000000000032
30
0
11
69.000000000000213
21
510.25000000000034
31
1.6838417673580845e-44
0
LINE
5
160
100
AcDbEntity
8
0
100
AcDbLine
10
69.000000000000213
20
510.25000000000034
30
1.6838417673580845e-44
11
-4.9999999999997957
21
510.25000000000034
31
0
0
LINE
5
161
100
AcDbEntity
8
0
100
AcDbLine
10
-4.9999999999997957
20
510.25000000000034
30
0
11
-4.9999999999998099
21
476.25000359118013
31
2.6642115942653012e-44
0
LINE
5
162
100
AcDbEntity
8
0
100
AcDbLine
10
-4.9999999999998099
20
476.25000000000034
30
0
11
69.000000000000213
21
476.25000000000034
31
0
0
LINE
5
163
100
AcDbEntity
8
0
100
AcDbLine
10
69.000000000000213
20
476.25000000000034
30
0
11
69.000000000000213
21
479.35000000000031
31
-2.3199597683600168e-45
0
LINE
5
164
100
AcDbEntity
8
0
100
AcDbLine
10
69.000000000000213
20
479.35000000000031
30
-2.3199597683600168e-45
11
84.000000000000213
21
479.35000000000031
31
0
0
LINE
5
165
100
AcDbEntity
8
0
100
AcDbLine
10
84.000000000000213
20
479.35000000000031
30
0
11
84.000000000000213
21
476.25000000000028
31
0
0
ENDSEC
0
SECTION
2
OBJECTS
0
DICTIONARY
5
C
100
AcDbDictionary
3
ACAD_GROUP
350
D
3
ACAD_MLINESTYLE
350
17
0
DICTIONARY
5
D
100
AcDbDictionary
0
DICTIONARY
5
1A
330
C
100
AcDbDictionary
0
DICTIONARY
5
17
100
AcDbDictionary
0
ENDSEC
0
EOF
